<?xml version="1.0" encoding="UTF-8"?>
<svg version="1.1" xmlns="http://www.w3.org/2000/svg" width="1563" height="1563">
<path d="M0 0 C515.79 0 1031.58 0 1563 0 C1563 515.79 1563 1031.58 1563 1563 C1047.21 1563 531.42 1563 0 1563 C0 1047.21 0 531.42 0 0 Z " fill="#7C8FB9" transform="translate(0,0)"/>
<path d="M0 0 C5.72961462 4.02292091 6.60806868 9.56077013 7.78125 16.12890625 C8.02504302 17.60608223 8.26457314 19.08396759 8.5 20.5625 C8.67595703 21.62694336 8.67595703 21.62694336 8.85546875 22.71289062 C10.37329756 32.02387276 11.63889216 41.37418647 12.9296875 50.71875 C14.58645255 62.64989219 16.32825916 74.53852777 18.60498047 86.36914062 C19.49596219 91.03253709 20.25730714 95.69395415 20.91088867 100.39697266 C21.97221776 107.89390523 23.15073729 115.36870103 24.35546875 122.84375 C24.58041258 124.24600417 24.80520611 125.64828246 25.02986145 127.05058289 C25.50372377 130.00786899 25.97808496 132.96507433 26.45288086 135.92221069 C30.33721398 160.12069083 34.17589701 184.32422274 37.80541992 208.5625 C39.12564482 217.36431402 40.50667281 226.15093171 41.98648071 234.92741394 C42.8584959 240.10952505 43.66074194 245.29412405 44.375 250.5 C44.62574389 252.28002664 44.87709157 254.05996828 45.12890625 255.83984375 C45.26570801 256.80905762 45.40250977 257.77827148 45.54345703 258.77685547 C48.73347384 281.29803293 52.23116495 303.74774657 56.01911926 326.17585754 C57.78337031 336.62717527 59.458037 347.08476008 60.92578125 357.58203125 C61.26284755 359.99221174 61.6000911 362.40236745 61.9375 364.8125 C62.18995483 366.61593872 62.18995483 366.61593872 62.44750977 368.45581055 C63.61844594 376.68131699 65.02240124 384.83554316 66.57226562 392.99682617 C67.75720823 399.35195219 68.6543324 405.70888012 69.4375 412.125 C70.63759519 421.92075609 72.30534559 431.59038435 74.08911133 441.29516602 C76.18947415 452.81438037 77.88436029 464.37939015 79.5546875 475.96728516 C80.20574955 480.40121759 80.91217266 484.82564855 81.625 489.25 C82.89352418 497.14963888 83.99155372 505.06293457 85 513 C86.81099022 499.04392314 88.31177769 485.08352325 89.5 471.0625 C90.35728496 460.95909479 91.29286501 450.88163835 92.5 440.8125 C93.57517503 431.84232995 94.52530429 422.86938313 95.375 413.875 C96.66391451 400.24070117 98.07024442 386.62021291 99.5 373 C101.68617789 352.14264314 103.75831431 331.27798078 105.71150208 310.39743042 C106.139364 305.82729913 106.56922482 301.25735754 107 296.6875 C107.08530975 295.78140991 107.17061951 294.87531982 107.2585144 293.94177246 C108.36602502 282.21376536 109.58370248 270.51136036 110.99389648 258.81542969 C111.94787622 250.79120263 112.66659446 242.75896418 113.26611328 234.70068359 C113.74708236 228.40260384 114.43853724 222.14166788 115.19581604 215.8719635 C115.86333306 210.29298396 116.45100819 204.70901629 117 199.1171875 C117.1236216 197.85948296 117.1236216 197.85948296 117.2497406 196.57637024 C117.58540247 193.14699517 117.9186068 189.71738779 118.25 186.28759766 C118.73373507 181.29435579 119.2359678 176.30366277 119.76318359 171.31481934 C119.99221282 169.07611766 120.19445882 166.8361709 120.39453125 164.59472656 C120.53258818 163.25312433 120.6718382 161.91164413 120.8125 160.5703125 C120.92207031 159.41547363 121.03164063 158.26063477 121.14453125 157.07080078 C122.22266875 153.20070561 123.9632988 151.56178067 127 149 C129.86608129 147.56695936 131.81300783 147.69355845 135 148 C138.17436414 149.43157598 140.34158822 150.59704401 141.86279297 153.8384552 C143.77672068 159.7725006 144.97157532 165.66972183 145.9375 171.82421875 C146.1037085 172.8469136 146.26991699 173.86960846 146.44116211 174.92329407 C146.79078564 177.08346951 147.13683466 179.24422621 147.47949219 181.40551758 C147.99155997 184.63428265 148.51424874 187.86117554 149.0390625 191.08789062 C150.66296474 201.14350209 152.18971206 211.20195973 153.51953125 221.30078125 C154.90261847 231.76765272 156.74083805 242.12521107 158.6875 252.5 C159.32249848 255.88432205 159.9505236 259.26982871 160.57421875 262.65625 C160.71792404 263.40934448 160.86162933 264.16243896 161.00968933 264.93835449 C161.77815083 269.11662107 162 272.68905744 162 277 C229.65 277 297.3 277 367 277 C375 292 375 292 375 296 C365.43 296 355.86 296 346 296 C346 341.54 346 387.08 346 434 C337.94704373 432.38940875 330.01754409 429.95812488 325 423 C322.20475481 414.53019529 323.08428413 405.14520413 323.37769699 396.34106588 C323.47833982 392.80885133 323.48716286 389.27637744 323.50610352 385.74295044 C323.55566197 379.0653421 323.68669054 372.39196985 323.84769535 365.71622002 C324.02710047 358.11093018 324.11464153 350.505428 324.19482231 342.89854598 C324.36167204 327.26283244 324.65482854 311.63294814 325 296 C310.48 296 295.96 296 281 296 C281 341.21 281 386.42 281 433 C273.30755931 431.46151186 266.21177334 429.73421583 260.58789062 423.91064453 C254.40806402 412.58286274 258.01590611 394.42273812 259 382 C258.50709473 382.31227539 258.01418945 382.62455078 257.50634766 382.94628906 C239.68726494 394.18249945 224.72707695 401.06530706 203.25 397.3515625 C188.92737963 393.32332552 178.22809031 384.60108317 170.578125 372.0234375 C165.752498 362.77830063 163.13980945 352.70816458 165.625 342.41015625 C169.31065213 331.73163737 177.08519372 324.90506254 187 320 C199.59349055 314.28068552 214.02363789 312.62148484 227.38671875 316.9609375 C236.23306286 320.47831797 243.75077961 324.84369642 251 331 C251.69609375 331.56332031 252.3921875 332.12664062 253.109375 332.70703125 C254.78508198 334.08446238 256.39957261 335.5357792 258 337 C258 337.66 258 338.32 258 339 C258.66 339 259.32 339 260 339 C260 324.81 260 310.62 260 296 C230.3 296 200.6 296 170 296 C170 297.32 170 298.64 170 300 C166.60462148 300.14575327 163.21005098 300.23421542 159.8125 300.3125 C158.85279297 300.35439453 157.89308594 300.39628906 156.90429688 300.43945312 C152.41189615 300.51717632 149.7960079 300.51230252 145.953125 298.0390625 C143.42260007 294.10156571 142.67517029 290.63846558 141.9375 286.0625 C141.78176514 285.19512207 141.62603027 284.32774414 141.46557617 283.43408203 C141.13481176 281.58424531 140.81219569 279.73293606 140.49707031 277.88037109 C139.99348622 274.96225465 139.45167234 272.05361638 138.8984375 269.14453125 C138.53588255 267.22146263 138.17388898 265.29828807 137.8125 263.375 C137.64548584 262.48820557 137.47847168 261.60141113 137.30639648 260.68774414 C137.07158569 259.39984985 137.07158569 259.39984985 136.83203125 258.0859375 C136.62670776 256.9729126 136.62670776 256.9729126 136.41723633 255.83740234 C135.79035719 251.57433073 135.40463272 247.28912637 135 243 C130.17502325 286.75746182 130.17502325 286.75746182 125.8125 330.5625 C125.73501526 331.39238434 125.65753052 332.22226868 125.57769775 333.07730103 C125.27233514 336.35250463 124.96760026 339.62776567 124.66387939 342.90312195 C123.8531877 351.62645334 122.99588312 360.34499292 122.125 369.0625 C122.04578308 369.85683441 121.96656616 370.65116882 121.88494873 371.46957397 C120.80103557 382.31320036 119.67146848 393.15167749 118.51953125 403.98828125 C118.39034805 405.2040535 118.26116486 406.41982574 118.12806702 407.67243958 C117.99774582 408.89871567 117.86742462 410.12499176 117.7331543 411.38842773 C117.5363356 413.24043289 117.5363356 413.24043289 117.33554077 415.12985229 C117.07072362 417.62150499 116.80577056 420.11314324 116.54067993 422.60476685 C114.93304399 437.74191334 113.41287776 452.87801971 112.14083862 468.04705811 C111.34246755 477.55199914 110.32386409 487.00169842 109.12426758 496.46362305 C108.03680431 505.22930051 107.2499208 514.0131363 106.5 522.8125 C105.50904857 534.43230873 104.41424947 546.03008777 103.125 557.62158203 C102.44296604 563.77320865 101.81095401 569.92600166 101.25 576.08984375 C101.12323009 577.45476963 100.9962782 578.81967863 100.86914062 580.18457031 C100.62757761 582.77831795 100.39901367 585.37210031 100.17773438 587.96777344 C98.72261342 603.54437528 98.72261342 603.54437528 94.375 609.0625 C90.66149988 610.52835531 86.88923197 610.99690263 83 610 C77.92535823 606.173466 76.91716103 602.44795833 75.875 596.5 C75.71378662 595.66251221 75.55257324 594.82502441 75.38647461 593.9621582 C74.12260353 587.20499538 73.13363036 580.40908864 72.2121582 573.59790039 C71.1576537 565.84879472 69.87465834 558.14673843 68.5625 550.4375 C66.66502223 539.24316319 64.95774717 528.03523969 63.38134766 516.79150391 C61.7421494 505.0998931 60.00372948 493.42982958 57.87768555 481.81591797 C56.56323263 474.625937 55.51873248 467.4421038 54.625 460.1875 C53.56871125 451.66842487 52.19439197 443.2514446 50.625 434.8125 C48.60216279 423.90640445 46.97164823 412.99136365 45.5 402 C43.91479401 390.16771359 42.07976559 378.43518736 39.8815918 366.69799805 C37.77630723 355.2395784 36.22057756 343.71384175 34.69921875 332.16601562 C33.85389231 325.79670086 32.99169976 319.49734612 31.48461914 313.24389648 C30.37241591 308.09414339 29.77689367 302.84170222 29.0625 297.625 C28.70798896 295.09621972 28.35252006 292.56757354 27.99609375 290.0390625 C27.73868408 288.21036621 27.73868408 288.21036621 27.47607422 286.34472656 C26.02380133 276.14157859 24.33670743 265.97812888 22.62109375 255.81640625 C22.10099259 252.73186661 21.58154038 249.64721831 21.0625 246.5625 C20.86583237 245.39477554 20.86583237 245.39477554 20.66519165 244.20346069 C18.71651414 232.60666163 16.94721172 220.99974821 15.33276367 209.35107422 C14.36751145 202.42637216 13.27100148 195.54638131 12.00317383 188.67114258 C10.97849423 183.06537649 10.24716114 177.44052131 9.52734375 171.7890625 C8.97147121 167.79501538 8.28731864 163.8409452 7.5625 159.875 C6.26572313 152.7496466 5.19740467 145.60779224 4.19555664 138.43554688 C2.32218874 125.06985704 0.23181646 111.73506814 -1.88671875 98.40625 C-2.02271484 97.55047363 -2.15871094 96.69469727 -2.29882812 95.81298828 C-2.5473926 94.25383948 -2.79726559 92.69489836 -3.04882812 91.13623047 C-3.80085867 86.43386604 -4.43155251 81.72820811 -5 77 C-7.57676882 85.48790873 -9.19696767 94.08097387 -10.7026062 102.8057251 C-11.44907836 107.12535092 -12.21430072 111.44164285 -12.98046875 115.7578125 C-13.1421907 116.66953217 -13.30391266 117.58125183 -13.47053528 118.52059937 C-15.35370235 129.07569704 -17.39859315 139.5991107 -19.4375 150.125 C-22.46821763 165.79009422 -25.36558129 181.47236658 -28.125 197.1875 C-30.7641613 212.21369516 -33.51230641 227.2102416 -36.4921875 242.17285156 C-37.94678604 249.49026264 -39.33250106 256.81062775 -40.59375 264.1640625 C-40.98106832 266.37950709 -41.36965105 268.59472678 -41.75848389 270.80990601 C-41.99951735 272.20908422 -42.23349082 273.60950024 -42.45977783 275.01113892 C-42.77065738 276.93613767 -43.10743021 278.85690061 -43.4453125 280.77734375 C-43.62594238 281.86265381 -43.80657227 282.94796387 -43.99267578 284.06616211 C-45.43161036 288.25706779 -48.02939686 291.01469843 -52 293 C-54.0016875 293.09144783 -56.00648256 293.11751697 -58.01025391 293.11352539 C-59.27141022 293.11344986 -60.53256653 293.11337433 -61.8319397 293.11329651 C-63.21348103 293.10818949 -64.59502196 293.10297349 -65.9765625 293.09765625 C-67.3861791 293.09579144 -68.79579634 293.09436783 -70.20541382 293.09336853 C-73.91753932 293.08954833 -77.62962578 293.07972228 -81.34173584 293.06866455 C-85.12886019 293.05843975 -88.91599083 293.05386862 -92.703125 293.04882812 C-100.13543448 293.03809958 -107.56771177 293.02102911 -115 293 C-115.29294449 293.75859818 -115.58588898 294.51719635 -115.88771057 295.29878235 C-117.27753793 298.67400655 -119.09133297 301.73408844 -120.96484375 304.85546875 C-121.3542514 305.51067505 -121.74365906 306.16588135 -122.14486694 306.84094238 C-123.40512896 308.95884578 -124.67082484 311.07342678 -125.9375 313.1875 C-126.80565127 314.63968882 -127.67373376 316.09191876 -128.54174805 317.54418945 C-130.24993931 320.40056155 -131.96079949 323.25531578 -133.67285156 326.109375 C-135.62994508 329.37536029 -137.56532111 332.6535708 -139.4921875 335.9375 C-140.43186565 337.52108621 -141.37192457 339.10444658 -142.3125 340.6875 C-142.71267334 341.37932373 -143.11284668 342.07114746 -143.52514648 342.78393555 C-146.13986565 347.13625294 -148.85875746 350.02680023 -153 353 C-156.87365567 353.72631044 -158.62152071 353.1781079 -162.1875 351.5 C-168.03398451 346.30312488 -168.98579235 337.37760195 -170.625 330 C-170.87443359 328.90059082 -171.12386719 327.80118164 -171.38085938 326.66845703 C-172.26090716 322.78052408 -173.13160002 318.89054619 -174 315 C-175.49825029 308.29127419 -176.99796277 301.58287902 -178.5 294.875 C-178.79035629 293.57642563 -178.79035629 293.57642563 -179.08657837 292.25161743 C-181.58516494 281.08839441 -184.18831495 269.96511828 -187.03198242 258.88378906 C-188.82270993 251.86347517 -190.37585473 244.8101176 -191.79614258 237.70581055 C-192.54932528 233.74125647 -192.54932528 233.74125647 -194 230 C-196.41329904 240.49840688 -198.79184712 251.00277913 -201.06967163 261.53152466 C-204.01951606 275.16574283 -207.09845966 288.74921919 -210.43603516 302.29541016 C-211.94171174 308.45329583 -213.37172067 314.61879117 -214.66796875 320.82421875 C-214.93472412 322.10006836 -215.20147949 323.37591797 -215.47631836 324.69042969 C-215.97859537 327.12304173 -216.47334524 329.55722462 -216.95922852 331.99316406 C-218.26141882 338.32915273 -219.63313301 343.38741353 -223.1875 348.8125 C-226.2325192 350.80751258 -229.44238221 351.22865596 -233 351 C-237.13067766 348.93466117 -239.24927896 347.21583276 -241 343 C-241.50785283 341.07550505 -241.95772035 339.13530183 -242.3671875 337.1875 C-242.73275757 335.46611816 -242.73275757 335.46611816 -243.10571289 333.70996094 C-243.35957764 332.48567383 -243.61344238 331.26138672 -243.875 330 C-244.14111084 328.73704102 -244.40722168 327.47408203 -244.68139648 326.17285156 C-246.34705834 318.2361366 -247.96800262 310.29082299 -249.53955078 302.33496094 C-250.73278674 296.2971627 -251.98332052 290.27278018 -253.25 284.25 C-254.82759608 276.74286165 -256.35992242 269.22774944 -257.8515625 261.703125 C-258.01470947 260.880401 -258.17785645 260.057677 -258.34594727 259.21002197 C-258.59477661 257.95508942 -258.59477661 257.95508942 -258.84863281 256.67480469 C-261.86171967 241.47965127 -264.9772024 226.32274651 -268.34619141 211.20214844 C-271.18004849 198.39085381 -273.73036224 185.52520237 -276.24804688 172.6484375 C-277.74104372 165.04652355 -279.32367765 157.51859815 -281.26757812 150.01660156 C-282.79389691 143.73020327 -283.92703737 137.35564906 -285.125 131 C-285.52148553 128.9103619 -285.9189577 126.82091786 -286.31759644 124.73168945 C-286.67473748 122.85794697 -287.02910409 120.98367629 -287.38330078 119.109375 C-287.85840882 116.71389758 -288.37439405 114.35934474 -289 112 C-289.09869385 112.8149292 -289.1973877 113.6298584 -289.29907227 114.46948242 C-290.8954736 127.45063315 -292.64828119 140.41043027 -294.40405273 153.37084961 C-294.93488478 157.2931761 -295.46260049 161.21591406 -295.99023438 165.13867188 C-297.54062071 176.6171086 -299.1222564 188.08188483 -300.97683716 199.51541138 C-302.14858876 206.786598 -303.09459858 214.08142805 -304.02032471 221.38739014 C-305.97477559 236.77353623 -308.17664964 252.11225147 -310.5171814 267.44400024 C-312.15387965 278.17764483 -313.67788536 288.9077694 -314.9597168 299.69067383 C-315.80099349 306.67419485 -316.83854524 313.61518106 -317.9375 320.5625 C-319.39385807 329.77490715 -320.66247696 338.99456115 -321.8125 348.25 C-323.48549412 361.66410478 -325.49500525 375.01646436 -327.5625 388.375 C-329.58516424 401.44484655 -331.54003534 414.49052024 -333.01025391 427.63574219 C-333.92963428 435.76187843 -335.17523436 443.8205035 -336.45654297 451.89648438 C-337.72763305 459.99804259 -338.80194685 468.11221932 -339.8125 476.25 C-341.61159456 490.67610734 -343.8056809 505.03255455 -346.03079224 519.39840698 C-347.77653052 530.68726938 -349.46780284 541.9600331 -350.75 553.3125 C-351.52473971 560.15209798 -352.36304716 566.95986497 -353.5 573.75 C-353.7165625 575.04421875 -353.933125 576.3384375 -354.15625 577.671875 C-355.16314512 581.64351685 -356.41461714 584.81096285 -359.75 587.3125 C-363.0210618 588.31199111 -365.59742588 588.3581657 -369 588 C-372.54446282 585.79455646 -374.48897718 583.85293106 -376 580 C-376.47487857 577.16035324 -376.86373085 574.36876962 -377.18359375 571.51171875 C-377.28363205 570.66913513 -377.38367035 569.82655151 -377.48674011 568.95843506 C-377.81146246 566.20230434 -378.12480119 563.44501868 -378.4375 560.6875 C-378.65968059 558.77543562 -378.88217652 556.86340786 -379.10498047 554.95141602 C-380.52326764 542.67833063 -381.82573973 530.39666526 -382.92358398 518.09057617 C-383.59008877 510.73324414 -384.41502157 503.4070207 -385.30859375 496.07421875 C-387.27301453 479.94571129 -389.06013479 463.79783526 -390.85180664 447.64941406 C-391.23922368 444.15806209 -391.62788964 440.66685316 -392.01782227 437.17578125 C-394.31875261 416.57463041 -396.5540227 395.96882113 -398.63414001 375.34408569 C-399.69006752 364.88829003 -400.81793587 354.44227932 -402 344 C-402.12336762 342.90967972 -402.12336762 342.90967972 -402.24922752 341.79733276 C-402.76027369 337.28634216 -403.27431864 332.77569698 -403.78946495 328.26517296 C-404.28532711 323.92263188 -404.78002649 319.57995825 -405.27490234 315.23730469 C-405.37913985 314.32274348 -405.48337736 313.40818228 -405.59077358 312.4659071 C-410.38123279 270.43202243 -415.09163486 228.38969863 -419.74474335 186.34040546 C-420.79282177 176.86916733 -421.84198827 167.39805059 -422.89336014 157.92717743 C-423.06220088 156.40593206 -423.23095459 154.88467703 -423.39960861 153.36341095 C-426.0734157 129.1668466 -426.0734157 129.1668466 -429 105 C-429.14248169 105.90818481 -429.14248169 105.90818481 -429.2878418 106.8347168 C-431.48823147 120.81927053 -433.78930364 134.78186777 -436.2487793 148.72338867 C-437.46690396 155.68431248 -438.53532869 162.65112236 -439.51318359 169.6496582 C-440.37050839 175.54989298 -441.44374131 181.41015681 -442.5 187.27734375 C-443.40166905 192.35627643 -444.21706969 197.43512227 -444.92675781 202.54467773 C-445.90540466 209.44574162 -447.01274225 216.31865208 -448.171875 223.19140625 C-448.4763707 225.01132584 -448.4763707 225.01132584 -448.78701782 226.86801147 C-449.66402217 232.10775609 -450.5453909 237.34676329 -451.42706299 242.58572388 C-452.10623188 246.62205061 -452.7841259 250.65858984 -453.4609375 254.6953125 C-453.57195927 255.35709188 -453.68298103 256.01887127 -453.7973671 256.70070457 C-455.20850892 265.122598 -456.56884732 273.54980929 -457.8515625 281.9921875 C-458.11743593 283.72063361 -458.38338303 285.44906838 -458.64941406 287.17749023 C-459.12400405 290.26594415 -459.57876662 293.35643925 -460.02246094 296.44946289 C-460.23035913 297.80887306 -460.43896755 299.16817489 -460.6484375 300.52734375 C-460.81520996 301.66937256 -460.98198242 302.81140137 -461.15380859 303.98803711 C-462.13151374 307.46811455 -463.53090821 309.38881283 -466 312 C-469.004556 313.502278 -472.10324402 313.16475351 -475.3996582 313.17700195 C-476.16245087 313.18357315 -476.92524353 313.19014435 -477.71115112 313.19691467 C-480.24102879 313.21666062 -482.77084705 313.22831315 -485.30078125 313.23828125 C-486.16427877 313.24235678 -487.0277763 313.2464323 -487.91744041 313.25063133 C-492.48784522 313.27149767 -497.05821995 313.2857969 -501.62866211 313.29516602 C-506.34998887 313.30623131 -511.07084442 313.34063076 -515.79200459 313.38033772 C-519.42171608 313.40648064 -523.05131492 313.41485577 -526.68111229 313.41844749 C-528.42144134 313.42331954 -530.16176516 313.43495114 -531.90200233 313.45348549 C-534.33910088 313.47782807 -536.77497536 313.4769213 -539.2121582 313.4699707 C-540.28854301 313.48918579 -540.28854301 313.48918579 -541.38667297 313.50878906 C-544.93461386 313.47194712 -546.89519422 313.06601338 -549.92424011 311.15812683 C-552.60198408 308.37412897 -552.94356881 306.49847555 -553.375 302.6875 C-552.87765929 297.79698299 -551.42915508 296.42915508 -548 293 C-545.20965739 291.6048287 -542.92774028 291.88044838 -539.80615234 291.88647461 C-538.50495453 291.88655014 -537.20375671 291.88662567 -535.86312866 291.88670349 C-534.43739789 291.89181053 -533.0116675 291.89702653 -531.5859375 291.90234375 C-530.13148039 291.90420853 -528.67702266 291.90563215 -527.2225647 291.90663147 C-523.39207224 291.91045195 -519.56161763 291.92027824 -515.73114014 291.93133545 C-511.82336947 291.94155965 -507.91559269 291.94613126 -504.0078125 291.95117188 C-496.3385244 291.96190092 -488.6692675 291.97897172 -481 292 C-480.95269241 291.2894194 -480.90538483 290.57883881 -480.85664368 289.84672546 C-480.27609007 282.00179044 -479.18469344 274.3318743 -477.85546875 266.58203125 C-477.53888054 264.69879402 -477.53888054 264.69879402 -477.21589661 262.7775116 C-476.65704567 259.45756851 -476.09410066 256.13837781 -475.52886963 252.81951904 C-474.52695979 246.92897707 -473.53650021 241.03649048 -472.54296875 235.14453125 C-472.32743851 233.87012177 -472.11190826 232.59571228 -471.8898468 231.28268433 C-470.30344372 221.87904787 -468.77466498 212.46720592 -467.295578 203.0460968 C-466.43530196 197.59264912 -465.4954538 192.16867327 -464.4375 186.75 C-463.07360546 179.70815319 -462.04271716 172.63885825 -461.08959961 165.53027344 C-460.51738 161.32830258 -459.86188417 157.17725651 -459.00390625 153.0234375 C-457.94121086 147.87558193 -457.20002972 142.70791339 -456.5 137.5 C-456.26331813 135.73919089 -456.02374143 133.97876844 -455.78125 132.21875 C-455.6275293 131.0730957 -455.6275293 131.0730957 -455.47070312 129.90429688 C-455.05626139 127.34713977 -454.55988602 124.83057593 -454.03515625 122.29443359 C-453.01158738 117.24098596 -452.30382822 112.18341741 -451.65625 107.0703125 C-449.92779131 93.9506235 -447.71574461 80.91962649 -445.5 67.875 C-444.71643653 63.24778365 -443.93575216 58.62008953 -443.15625 53.9921875 C-442.96796631 52.88236511 -442.77968262 51.77254272 -442.58569336 50.62908936 C-441.7144963 45.45302416 -440.88077691 40.27788842 -440.15625 35.07910156 C-440.02778687 34.16516632 -439.89932373 33.25123108 -439.76696777 32.30960083 C-439.53537179 30.63111779 -439.31266857 28.95137012 -439.10119629 27.27023315 C-438.35654464 21.85876086 -437.04322288 17.35756487 -433.375 13.125 C-429.63078697 11.35142541 -426.05272197 11.19812453 -422 12 C-419 14.4375 -419 14.4375 -417 17 C-416.67 17.33 -416.34 17.66 -416 18 C-415.7519828 19.52352403 -415.56499038 21.0570285 -415.40258789 22.59204102 C-415.29441238 23.5926355 -415.18623688 24.59322998 -415.07478333 25.62414551 C-414.95858139 26.73946655 -414.84237946 27.8547876 -414.72265625 29.00390625 C-414.59585983 30.18392212 -414.46906342 31.36393799 -414.33842468 32.57971191 C-414.05850577 35.18660411 -413.78009368 37.7936107 -413.50402832 40.40090942 C-412.73892856 47.6226194 -411.9571639 54.84253691 -411.17578125 62.0625 C-411.09196072 62.83821917 -411.00814018 63.61393833 -410.92177963 64.41316414 C-409.46709194 77.86414655 -407.95425916 91.30811096 -406.41796875 104.75 C-406.25261722 106.19780004 -406.25261722 106.19780004 -406.08392525 107.67484856 C-405.0930554 116.34897243 -404.10044406 125.02289478 -403.10134888 133.69607544 C-402.47648628 139.12131316 -401.85397158 144.54681453 -401.234375 149.97265625 C-401.13563583 150.83721939 -401.03689667 151.70178253 -400.93516541 152.59254456 C-399.4731178 165.43385683 -398.13571873 178.2825775 -396.95098877 191.15248108 C-396.30746015 198.1064709 -395.52859218 205.02092626 -394.5625 211.9375 C-393.3253571 221.01035992 -392.36814647 230.09661345 -391.48913574 239.2097168 C-389.80638727 256.64536172 -387.86930993 274.04214098 -385.8125 291.4375 C-382.93104119 315.84440164 -380.15009624 340.26125144 -377.4375 364.6875 C-377.34162472 365.55034985 -377.24574944 366.41319969 -377.14696884 367.3021965 C-374.32080912 392.74380636 -371.56021935 418.19137222 -368.93920898 443.6550293 C-367.44485772 458.12279244 -365.77754233 472.56428606 -364 487 C-361.41505865 471.56021519 -359.18074057 456.10819467 -357.18063354 440.58361816 C-355.75133626 429.5035953 -354.24026851 418.44817604 -352.43164062 407.42211914 C-351.33365512 400.60911909 -350.46836057 393.77867578 -349.6328125 386.9296875 C-347.85612437 372.43271217 -345.66657517 358.00314825 -343.47949219 343.56347656 C-341.50464487 330.49824374 -339.62874253 317.43460117 -338.02632141 304.31806946 C-337.02113917 296.09022725 -335.88548394 287.88947315 -334.6875 279.6875 C-334.25510042 276.70202584 -333.82463483 273.71627447 -333.39453125 270.73046875 C-333.28318848 269.95851166 -333.1718457 269.18655457 -333.05712891 268.39120483 C-332.16912098 262.21779962 -331.30541053 256.04117259 -330.44921875 249.86328125 C-330.31813217 248.91829269 -330.18704559 247.97330414 -330.05198669 246.99967957 C-329.53494517 243.270187 -329.01818309 239.54066059 -328.50497437 235.81063843 C-327.24470943 226.6521035 -325.9428136 217.50633096 -324.47265625 208.37890625 C-323.1055767 199.87747122 -321.95345233 191.35784959 -320.8659668 182.81665039 C-319.38274386 171.18832576 -317.84510063 159.57732359 -316 148 C-313.92989553 134.97949545 -312.24373445 121.91449127 -310.54536438 108.84158325 C-310.44144882 108.04179047 -310.33753326 107.24199768 -310.23046875 106.41796875 C-310.12707687 105.62180145 -310.023685 104.82563416 -309.91716003 104.00534058 C-308.91811173 96.3318673 -307.87360066 88.66513604 -306.8125 81 C-306.6578125 79.88133545 -306.503125 78.7626709 -306.34375 77.61010742 C-305.25051429 69.73702789 -304.13221689 61.8675653 -303 54 C-302.85667236 52.99638428 -302.71334473 51.99276855 -302.56567383 50.95874023 C-301.74279901 45.47273103 -300.56588366 42.53855984 -296 39 C-293.13391871 37.56695936 -291.18699217 37.69355845 -288 38 C-284.22099107 39.96587845 -282.359841 41.16015212 -280.66210938 45.12255859 C-280.39205078 46.32734863 -280.12199219 47.53213867 -279.84375 48.7734375 C-279.61226257 49.76058243 -279.61226257 49.76058243 -279.37609863 50.76766968 C-278.89527306 52.84079222 -278.44731482 54.91942327 -278 57 C-277.70351563 58.28165039 -277.40703125 59.56330078 -277.1015625 60.88378906 C-276.20389855 64.79120901 -275.34546054 68.70606332 -274.5 72.625 C-274.27305954 73.66797745 -274.27305954 73.66797745 -274.04153442 74.73202515 C-272.05055945 83.88324682 -270.17886964 93.04838476 -268.48828125 102.26025391 C-267.16395422 109.37991456 -265.59523695 116.4366453 -264 123.5 C-261.99409586 132.38595626 -260.12967915 141.27630746 -258.46435547 150.23193359 C-255.62593134 165.45462052 -252.33367759 180.58080686 -248.9375 195.6875 C-246.97077802 204.43576615 -245.16001023 213.1902567 -243.53881836 222.00854492 C-242.19538015 229.21188018 -240.61476671 236.35310655 -239 243.5 C-236.58855042 254.17722873 -234.42298587 264.87631333 -232.44335938 275.64111328 C-231.66762221 279.76841088 -230.83389754 283.88411999 -230 288 C-225.81181195 271.06167492 -221.73540924 254.12402326 -218.14990234 237.04638672 C-216.33353133 228.43740384 -214.35462667 219.87836419 -212.25170898 211.33496094 C-210.90521755 205.85052506 -209.63478134 200.36101418 -208.46484375 194.8359375 C-208.20896484 193.65209473 -207.95308594 192.46825195 -207.68945312 191.24853516 C-207.20031524 188.97277351 -206.72556073 186.69385659 -206.26757812 184.41162109 C-204.96183263 178.4106481 -203.93743819 174.79428748 -199 171 C-198.67 170.67 -198.34 170.34 -198 170 C-193.95541301 169.60347186 -191.46305679 169.78628148 -187.75 171.5 C-181.73762513 176.96579534 -180.9232678 186.28522496 -179.3125 193.9375 C-177.03059813 204.50077976 -174.57700244 215.00575974 -172 225.5 C-169.27503933 236.61876399 -166.67551069 247.75473539 -164.2253418 258.93798828 C-161.5404187 271.17042115 -158.67034258 283.35816804 -155.80712891 295.54980469 C-154.52506105 301.03019881 -153.26146319 306.51483168 -152 312 C-149.03007872 308.44488267 -146.58754761 304.81323837 -144.25 300.81640625 C-143.91000977 300.23841782 -143.57001953 299.66042938 -143.21972656 299.06492615 C-142.14277195 297.23293204 -141.07105938 295.39794585 -140 293.5625 C-138.9281873 291.73108358 -137.85521243 289.90036882 -136.78027344 288.07078552 C-135.8042127 286.4087212 -134.83168896 284.74458124 -133.859375 283.08032227 C-128.63291923 274.42194615 -128.63291923 274.42194615 -125 272 C-122.32344055 271.75949097 -122.32344055 271.75949097 -119.05981445 271.77294922 C-117.22825554 271.77317581 -117.22825554 271.77317581 -115.35969543 271.77340698 C-113.38147041 271.78889084 -113.38147041 271.78889084 -111.36328125 271.8046875 C-109.99993599 271.80841839 -108.63658804 271.811265 -107.27323914 271.81326294 C-103.68765846 271.82089347 -100.10224021 271.84053685 -96.51672363 271.8626709 C-92.85687456 271.88314189 -89.19699921 271.89226733 -85.53710938 271.90234375 C-78.35799893 271.9237834 -71.17902224 271.95791221 -64 272 C-63.88000641 271.19874191 -63.76001282 270.39748383 -63.63638306 269.57194519 C-62.50174125 262.08398801 -61.25836168 254.62586088 -59.8984375 247.17578125 C-59.70104477 246.08750534 -59.50365204 244.99922943 -59.30027771 243.87797546 C-58.66056037 240.35577532 -58.01795806 236.83410989 -57.375 233.3125 C-57.15379486 232.09747803 -56.93258972 230.88245605 -56.7046814 229.63061523 C-53.65490276 212.88268762 -50.53296441 196.15025061 -47.31900024 179.43310547 C-44.976064 167.24151766 -42.73041254 155.03637736 -40.5625 142.8125 C-37.95328371 128.10136765 -35.19910402 113.42136956 -32.375 98.75 C-32.18014008 97.73766296 -31.98528015 96.72532593 -31.78451538 95.68231201 C-31.39824439 93.67596139 -31.01195825 91.66961368 -30.62565613 89.66326904 C-30.43981461 88.69802307 -30.25397308 87.7327771 -30.0625 86.73828125 C-29.88000198 85.79059875 -29.69750397 84.84291626 -29.50947571 83.86651611 C-28.10429446 76.5617463 -26.72451661 69.25278696 -25.375 61.9375 C-25.19138916 60.94298828 -25.00777832 59.94847656 -24.81860352 58.92382812 C-23.76695348 53.20954467 -22.7258824 47.4933655 -21.68768311 41.77662659 C-21.05508651 38.29703912 -20.41979058 34.81794682 -19.78424072 31.33889771 C-19.32337131 28.80966142 -18.86646752 26.27972981 -18.40966797 23.74975586 C-18.12357789 22.18209139 -17.83729132 20.61446276 -17.55078125 19.046875 C-17.42388412 18.33763382 -17.296987 17.62839264 -17.16624451 16.8976593 C-15.01331998 5.19755997 -15.01331998 5.19755997 -11.9375 1.5625 C-7.8829458 -0.59417776 -4.49713289 -0.93044129 0 0 Z " fill="#061327" transform="translate(670,477)"/>
<path d="M0 0 C1.15775018 -0.00812145 2.31550037 -0.0162429 3.50833389 -0.02461046 C6.72323107 -0.04107974 9.93674823 -0.03067091 13.15157277 -0.00894238 C16.64836069 0.00808197 20.14499998 -0.00970995 23.64177984 -0.02307069 C29.77066316 -0.04166915 35.89921859 -0.03793856 42.02809811 -0.01960564 C51.141764 0.00758071 60.25517775 0.00046778 69.36886187 -0.01352284 C85.64460167 -0.03738907 101.92018667 -0.02719634 118.19591794 -0.00296629 C132.43829658 0.01809274 146.68062245 0.0271864 160.92301655 0.02444267 C162.33922142 0.02419058 162.33922142 0.02419058 163.78403648 0.0239334 C167.61642791 0.02322892 171.44881933 0.0224609 175.28121073 0.02160224 C211.2427352 0.01366946 247.20416633 0.03912082 283.16566409 0.08065537 C315.12860866 0.11739813 347.09146373 0.12901942 379.05442715 0.11811256 C381.10685088 0.1174197 383.15927462 0.1167275 385.21169836 0.11603598 C386.22636872 0.11569399 387.24103908 0.115352 388.28645703 0.11499965 C393.39397172 0.11329261 398.50148643 0.11164504 403.60900116 0.11006165 C404.61659448 0.10974748 405.62418779 0.10943332 406.66231424 0.10910964 C433.35623554 0.10113329 460.0501482 0.11207556 486.74406427 0.12908423 C489.61563198 0.13089834 492.48719968 0.13270964 495.35876739 0.13451469 C497.26375607 0.13571692 499.16874473 0.13693415 501.07373339 0.13816651 C514.36537124 0.14661595 527.65699216 0.14776298 540.94863182 0.14395552 C558.07504643 0.13907412 575.20137029 0.14717655 592.32776005 0.17837553 C601.38924251 0.19450135 610.45057384 0.19966053 619.51206539 0.18909081 C625.55962892 0.18315102 631.6070585 0.19169471 637.65458998 0.21218797 C641.10370875 0.22347525 644.55251862 0.22839981 648.00164009 0.21585481 C651.71294069 0.20570791 655.42335934 0.21992607 659.13459778 0.24050903 C660.74919864 0.22731958 660.74919864 0.22731958 662.39641771 0.21386367 C668.4053808 0.27780255 671.95731133 0.68960471 676.50437832 4.74946022 C678.7847582 8.17003004 678.75509255 9.37346594 678.75737798 13.39225179 C678.76289747 14.57715867 678.76841696 15.76206556 678.7741037 16.98287871 C678.76999306 18.29365889 678.76588243 19.60443906 678.76164722 20.95493984 C678.76433855 22.3601897 678.76790519 23.76543812 678.77227169 25.17068377 C678.78177475 29.05849135 678.77871457 32.9462058 678.77371615 36.8340181 C678.7704625 41.05374865 678.77872119 45.27345872 678.7855345 49.49318284 C678.7958656 56.89755885 678.79867292 64.3019087 678.79662228 71.7062912 C678.79358033 82.716745 678.80187832 93.72716972 678.81237153 104.73761788 C678.83174531 125.54368756 678.83734101 146.34974742 678.83848564 167.15582506 C678.8394036 183.21930256 678.8435144 199.28277619 678.84988689 215.34625244 C678.8516819 219.96477689 678.85346152 224.58330134 678.85523665 229.2018258 C678.85589979 230.92393907 678.85589979 230.92393907 678.85657634 232.68084251 C678.86889022 264.9880969 678.87677691 297.29534994 678.87588978 329.60260677 C678.87585862 330.82145141 678.87582746 332.04029604 678.87579536 333.29607536 C678.87562914 339.47413517 678.87543106 345.65219497 678.87522595 351.83025477 C678.87516611 353.67083748 678.87516611 353.67083748 678.87510507 355.54860368 C678.87502419 358.03000974 678.8749406 360.51141579 678.87485428 362.99282184 C678.8736285 401.60792404 678.88864466 440.22299112 678.91599941 478.83808327 C678.94669658 522.1896654 678.96393334 565.54122446 678.96207297 608.89281815 C678.9619237 613.51228567 678.96182629 618.13175318 678.96176434 622.7512207 C678.96172937 624.45745391 678.96172937 624.45745391 678.9616937 626.19815648 C678.96163206 644.5321993 678.97442357 662.86621172 678.99162886 681.20024549 C679.008553 699.6150873 679.01058451 718.02988446 678.99741022 736.44472972 C678.9899995 747.39471141 678.9937421 758.34455782 679.0132949 769.29452528 C679.02524305 776.60102853 679.02276174 783.90743321 679.00835391 791.21393183 C679.00054696 795.38217366 678.99916434 799.55015266 679.01526861 803.71837655 C679.0297811 807.50762538 679.02600807 811.29639148 679.00742088 815.08561848 C679.00233409 817.09616794 679.01694377 819.10673748 679.03226644 821.11723498 C678.96258826 829.86157974 677.93539377 833.30374042 671.77000332 839.49555397 C670.77092622 840.39951232 669.76549904 841.2964937 668.75437832 842.18696022 C668.22215664 842.66504128 667.68993496 843.14312233 667.14158535 843.63569069 C665.6024537 845.01462225 664.05547485 846.38401415 662.50437832 847.74946022 C661.77476894 848.39270241 661.04515957 849.0359446 660.29344082 849.69867897 C659.02762665 850.80691219 657.75943063 851.91243136 656.48875332 853.01508522 C652.4506457 856.54445487 648.48463643 860.15516653 644.50437832 863.74946022 C635.0156579 872.31806229 635.0156579 872.31806229 630.56687832 876.18696022 C626.3713461 879.84003979 622.27064278 883.59451571 618.16062832 887.34321022 C615.33715163 889.90094793 612.4738183 892.40715991 609.59812832 894.90571022 C607.04018805 897.15822479 604.52258852 899.45263114 602.00437832 901.74946022 C598.24087311 905.18210783 594.44308481 908.56501032 590.59812832 911.90571022 C588.04018805 914.15822479 585.52258852 916.45263114 583.00437832 918.74946022 C579.24087311 922.18210783 575.44308481 925.56501032 571.59812832 928.90571022 C569.04018805 931.15822479 566.52258852 933.45263114 564.00437832 935.74946022 C560.24087311 939.18210783 556.44308481 942.56501032 552.59812832 945.90571022 C550.04018805 948.15822479 547.52258852 950.45263114 545.00437832 952.74946022 C541.23876421 956.18403133 537.44032019 959.57032696 533.59031582 962.90961647 C531.06966211 965.13288969 528.60265584 967.41112923 526.12937832 969.68696022 C510.52198757 983.90316293 510.52198757 983.90316293 499.02816868 983.88647461 C498.14825081 983.88912644 497.26833295 983.89177826 496.3617509 983.89451045 C493.3865065 983.90222519 490.41130322 983.90276345 487.43604946 983.90336037 C485.29212676 983.90737353 483.14820481 983.91181151 481.00428379 983.91663992 C475.09189707 983.92862712 469.17951852 983.93425881 463.26712203 983.93882108 C456.89891602 983.94476888 450.53071982 983.9563806 444.16252041 983.96711159 C429.50207885 983.99049173 414.84163519 984.005044 400.18118062 984.017341 C395.11046058 984.02159477 390.03974091 984.02616046 384.96902132 984.03092432 C358.01878494 984.05618055 331.06854796 984.0782329 304.11830235 984.09065247 C297.87378468 984.09357388 291.62926703 984.09654139 285.38474941 984.09955788 C284.60893367 984.09992879 283.83311792 984.10029969 283.03379261 984.10068184 C257.86781552 984.11284319 232.70190829 984.14379725 207.53596402 984.1854794 C181.6732775 984.2282376 155.81062787 984.25488961 129.94790504 984.26012718 C126.29746749 984.26086766 122.64703 984.26177835 118.99659252 984.26278496 C118.27813089 984.26297557 117.55966925 984.26316619 116.81943606 984.26336258 C105.24319628 984.26688019 93.66704382 984.28719639 82.09083615 984.3135816 C70.46220967 984.33968733 58.83370834 984.3470548 47.20505418 984.3364803 C40.90167835 984.33127553 34.59858098 984.33429841 28.29524517 984.35894585 C22.53026142 984.38130095 16.76575838 984.38080587 11.00076698 984.36174197 C8.90992707 984.35892262 6.81905551 984.36464669 4.72826685 984.37955491 C1.89567453 984.39852525 -0.93517958 984.38696453 -3.76772976 984.36749268 C-4.99813029 984.38676651 -4.99813029 984.38676651 -6.25338739 984.40642971 C-10.56369085 984.34089113 -12.02874871 984.13700276 -15.47861493 981.27333319 C-16.14422716 980.44045511 -16.80983938 979.60757703 -17.49562168 978.74946022 C-17.82562168 978.41946022 -18.15562168 978.08946022 -18.49562168 977.74946022 C-18.60075929 975.95134641 -18.63528312 974.14907922 -18.6427927 972.34790993 C-18.65352566 970.58971428 -18.65352566 970.58971428 -18.66447544 968.79599953 C-18.66716434 967.49834663 -18.66985325 966.20069374 -18.67262363 964.86371803 C-18.67888558 963.49238855 -18.68553214 962.12106077 -18.69253635 960.74973488 C-18.70997344 957.01404625 -18.72050588 953.27837045 -18.72874188 949.54265118 C-18.73388725 947.20969671 -18.73996324 944.87674627 -18.74625301 942.54379463 C-18.76531429 935.24755595 -18.77954233 927.95132744 -18.78786498 920.65506864 C-18.7976361 912.22747458 -18.82394819 903.80014327 -18.86436588 895.3726418 C-18.89451572 888.86304094 -18.90933285 882.35351542 -18.912646 875.84384608 C-18.9149982 871.95410381 -18.92397986 868.06464193 -18.94910717 864.17497444 C-18.97237283 860.51414857 -18.97662753 856.85378795 -18.96634579 853.19290733 C-18.9656136 851.21024281 -18.98471652 849.22760201 -19.00441074 847.24503517 C-18.99746693 846.06162544 -18.99052311 844.87821571 -18.98336887 843.65894508 C-18.98575723 842.63244473 -18.98814558 841.60594437 -18.99060631 840.54833794 C-18.3639185 837.00474801 -16.95584876 835.3255519 -14.49562168 832.74946022 C-11.26702321 831.13516099 -7.98568515 831.15375365 -4.49562168 831.74946022 C-1.47054023 833.48548127 0.922279 835.58526159 2.50437832 838.74946022 C2.50437832 879.66946022 2.50437832 920.58946022 2.50437832 962.74946022 C165.52437832 962.74946022 328.54437832 962.74946022 496.50437832 962.74946022 C497.16437832 957.13946022 497.82437832 951.52946022 498.50437832 945.74946022 C498.93774975 942.75038706 499.381582 939.76766891 499.87937832 936.78071022 C500.13878402 935.17919485 500.39788131 933.5776295 500.65672207 931.97602272 C500.79320156 931.13780983 500.92968105 930.29959694 501.07029629 929.43598366 C501.87934213 924.42881802 502.65831911 919.41691544 503.44187832 914.40571022 C503.78294514 912.22991658 504.12409176 910.05413545 504.46531582 907.87836647 C504.81168199 905.66873294 505.15803611 903.45909751 505.50437832 901.24946022 C507.82958181 886.41483642 510.15791303 871.58073745 512.50437832 856.74946022 C512.74245205 855.24464088 512.74245205 855.24464088 512.98533535 853.70942116 C513.11665859 852.87958717 513.24798183 852.04975319 513.38328457 851.19477272 C513.4985751 850.46476051 513.61386562 849.73474831 513.7326498 848.98261452 C513.96862325 847.49420642 514.20660867 846.00611663 514.44602871 844.51825905 C515.01306978 840.97452654 515.54382526 837.43920687 515.99656582 833.87836647 C517.37236965 823.24605789 517.37236965 823.24605789 521.50437832 818.74946022 C562.05612852 798.47358512 612.16614329 816.74946022 657.50437832 816.74946022 C657.50437832 554.72946022 657.50437832 292.70946022 657.50437832 22.74946022 C441.35437832 22.74946022 225.20437832 22.74946022 2.50437832 22.74946022 C2.50437832 105.57946022 2.50437832 188.40946022 2.50437832 273.74946022 C-2.17854851 280.77385046 -2.17854851 280.77385046 -5.49562168 281.74946022 C-9.41391328 282.07598452 -12.21727654 282.0103879 -15.49562168 279.74946022 C-18.10399076 276.81794671 -18.87154393 274.98121114 -18.88431835 271.07295609 C-18.89460839 270.13165867 -18.90489843 269.19036126 -18.91550028 268.22053969 C-18.9115366 267.18961868 -18.90757291 266.15869767 -18.90348911 265.09653664 C-18.91099135 263.99887675 -18.91849358 262.90121686 -18.92622316 261.77029455 C-18.94761555 258.07918122 -18.94743942 254.38838494 -18.94728184 250.69721413 C-18.95789132 248.05613349 -18.96964302 245.41507916 -18.98268223 242.77401161 C-19.01480288 235.5901873 -19.02461596 228.40643477 -19.03032446 221.22254801 C-19.03407494 216.7372298 -19.04288211 212.25193078 -19.05282307 207.76662254 C-19.07976158 195.34844401 -19.10227194 182.93028403 -19.10470104 170.51207352 C-19.10485662 169.71743595 -19.10501219 168.92279838 -19.10517248 168.10408088 C-19.10546353 166.49315953 -19.1057489 164.88223819 -19.10602863 163.27131684 C-19.10617149 162.47165298 -19.10631434 161.67198913 -19.10646152 160.84809303 C-19.10660119 160.04745353 -19.10674086 159.24681402 -19.10688476 158.42191271 C-19.11002099 145.44452064 -19.14662037 132.46746213 -19.19809778 119.49018021 C-19.25052557 106.16715869 -19.27681419 92.84430195 -19.27625215 79.52117479 C-19.27650491 72.04038444 -19.28776844 64.55997753 -19.32742786 57.07928276 C-19.36102175 50.71027854 -19.37052346 44.34180707 -19.34867091 37.97274186 C-19.33822501 34.72299941 -19.34287616 31.47451929 -19.37043476 28.22484589 C-19.39846835 24.70109034 -19.38351217 21.18006246 -19.35759068 17.65635109 C-19.37593421 16.62989153 -19.39427774 15.60343196 -19.41317713 14.54586756 C-19.3973897 13.59935466 -19.38160226 12.65284175 -19.36533642 11.67764664 C-19.36636824 10.8649351 -19.36740007 10.05222356 -19.36846316 9.2148844 C-16.21827301 0.31687123 -8.2395685 -0.11214623 0 0 Z " fill="#061327" transform="translate(767.4956216812134,289.2505397796631)"/>
<path d="M0 0 C0 39.6 0 79.2 0 120 C7.22071929 116.79079143 11.03642014 114.68193197 16.125 109.25 C16.72973145 108.62456299 17.33446289 107.99912598 17.95751953 107.35473633 C21.54588561 103.61956024 25.07549616 99.83129667 28.40625 95.86328125 C29.61537823 94.44966809 30.87498665 93.07904484 32.15625 91.73046875 C37.48299635 86.28404389 37.48299635 86.28404389 39 79 C35.46588679 76.87953208 32.05606165 76.46800711 28 76 C28 73.36 28 70.72 28 68 C64.96 68 101.92 68 140 68 C140 70.64 140 73.28 140 76 C139.07316406 76.13277344 138.14632813 76.26554688 137.19140625 76.40234375 C135.39509766 76.66724609 135.39509766 76.66724609 133.5625 76.9375 C132.36753906 77.11152344 131.17257812 77.28554688 129.94140625 77.46484375 C127.12044324 77.68985213 127.12044324 77.68985213 126 79 C125.47189681 86.3274318 126.90031383 91.75488595 129.5 98.5625 C129.88220703 99.59375 130.26441406 100.625 130.65820312 101.6875 C134.78346788 112.68400726 139.14947838 123.59112273 143.5 134.5 C143.86246826 135.40896027 144.22493652 136.31792053 144.59838867 137.25442505 C145.63491062 139.84816237 146.67580832 142.44008826 147.71875 145.03125 C148.03505371 145.82176254 148.35135742 146.61227509 148.67724609 147.42674255 C149.9101653 150.97356323 149.9101653 150.97356323 152 154 C156.37757771 144.01894674 160.70970222 134.01886015 165 124 C165.32488403 123.24132629 165.64976807 122.48265259 165.98449707 121.70098877 C167.94623783 117.1120939 169.890938 112.51645055 171.81658936 107.91229248 C172.43426335 106.44006108 173.05599214 104.96952369 173.6819458 103.50079346 C176.85117738 96.05421481 179.74477819 89.21267311 180 81 C175.19938787 77.35815632 169.80064983 76.86349428 164 76 C164 73.36 164 70.72 164 68 C179.84 68 195.68 68 212 68 C212 70.64 212 73.28 212 76 C211.34773438 76.08636719 210.69546875 76.17273438 210.0234375 76.26171875 C209.14945313 76.40222656 208.27546875 76.54273438 207.375 76.6875 C206.51648437 76.81511719 205.65796875 76.94273437 204.7734375 77.07421875 C199.64852423 78.78492924 196.68597067 81.88343888 193.92773438 86.37304688 C193.3003879 87.64718531 192.68975074 88.92965129 192.09375 90.21875 C191.58938416 91.26899353 191.58938416 91.26899353 191.0748291 92.3404541 C187.67556767 99.50200488 184.56026608 106.78749168 181.50357056 114.10040283 C180.08178293 117.49998201 178.64617786 120.89368357 177.21186829 124.28799438 C176.42345351 126.15411006 175.63561438 128.02046903 174.84831238 129.88705444 C148.98139592 191.21087315 148.98139592 191.21087315 138.875 212.8125 C138.35010986 213.93543457 137.82521973 215.05836914 137.28442383 216.21533203 C124.48929107 243.16511998 124.48929107 243.16511998 114.5 248.125 C108.82236431 249.54440892 104.18184276 249.76768542 98.625 247.8125 C95.5224117 245.67023665 94.3534144 244.53391537 93 241 C92.07127764 235.55900031 92.29806611 231.29409699 95.5 226.6875 C100.67218739 220.67756395 107.11288833 216.98232979 115 216 C118.34176693 215.86115868 121.65815551 215.87673524 125 216 C125.33064453 214.83210938 125.33064453 214.83210938 125.66796875 213.640625 C126.77409447 210.61743095 127.98889894 208.00312921 129.48828125 205.171875 C129.94654297 204.28886719 130.40480469 203.40585937 130.87695312 202.49609375 C131.83182896 200.66948772 132.80843588 198.854074 133.80664062 197.05078125 C134.25845703 196.16261719 134.71027344 195.27445313 135.17578125 194.359375 C135.59770752 193.57014648 136.01963379 192.78091797 136.4543457 191.96777344 C137.32081021 187.25513693 135.61111549 183.42408183 134 179 C133.71483017 178.21557526 133.42966034 177.43115051 133.135849 176.62295532 C132.22797663 174.20480199 131.2854776 171.80287812 130.33203125 169.40234375 C129.9799057 168.50594681 129.62778015 167.60954987 129.26498413 166.68598938 C128.11794575 163.76831796 126.96535019 160.85287934 125.8125 157.9375 C124.60108485 154.86293768 123.39084581 151.78791409 122.18067932 148.71286011 C121.35404725 146.61267288 120.52692571 144.51267825 119.69932556 142.41287231 C116.91874264 135.35345519 114.1654907 128.28391135 111.4296875 121.20703125 C110.70733907 119.34185359 109.9849282 117.47670011 109.26245117 115.61157227 C108.23519541 112.9593787 107.20930846 110.30670706 106.18838501 107.65206909 C100.81200465 90.306354 100.81200465 90.306354 89 78 C79.80993704 75.16189232 70.75474491 76.98140681 62.453125 81.3359375 C55.02947088 85.73434529 48.91646636 91.30770053 42.76611328 97.28955078 C40.86962155 99.1262692 38.9487577 100.93548584 37.02734375 102.74609375 C35.72523212 103.99601137 34.42442152 105.24728595 33.125 106.5 C32.18660278 107.3808728 32.18660278 107.3808728 31.22924805 108.27954102 C29.29603921 110.11828051 29.29603921 110.11828051 27 113 C27.28773633 116.26672564 28.72670842 118.25043676 30.73828125 120.765625 C31.30514648 121.48274658 31.87201172 122.19986816 32.45605469 122.9387207 C33.06868164 123.70144287 33.68130859 124.46416504 34.3125 125.25 C35.59624373 126.87275593 36.87877394 128.49647252 38.16015625 130.12109375 C38.8061377 130.93819824 39.45211914 131.75530273 40.11767578 132.59716797 C42.88373061 136.12810332 45.57147585 139.71496954 48.25 143.3125 C49.23022616 144.62387928 50.21069076 145.93508037 51.19140625 147.24609375 C51.66078613 147.87370605 52.13016602 148.50131836 52.61376953 149.14794922 C65.37224045 168.23148922 65.37224045 168.23148922 85 177.6875 C86.485 177.8421875 86.485 177.8421875 88 178 C88 180.64 88 183.28 88 186 C73.81 186 59.62 186 45 186 C44.01 183.69 43.02 181.38 42 179 C37.48783838 170.86805412 31.7431926 163.52696965 26.12890625 156.140625 C23.57044878 152.77168504 21.07109866 149.36435778 18.59130859 145.93725586 C10.99475461 134.4569654 10.99475461 134.4569654 0 127 C0.06908241 132.85368468 0.15714937 138.70666907 0.26245117 144.55981445 C0.29560684 146.54899294 0.32366765 148.53826339 0.34643555 150.52758789 C0.380154 153.39509084 0.43247823 156.26175817 0.48828125 159.12890625 C0.49467117 160.01147598 0.5010611 160.89404572 0.50764465 161.80335999 C0.635896 167.24815349 1.39493227 171.18311997 4 176 C6.89362649 177.44681324 9.8083009 177.43242376 13.00390625 177.71875 C15 178 15 178 16 179 C16 181.31 16 183.62 16 186 C-3.8 186 -23.6 186 -44 186 C-44 183.36 -44 180.72 -44 178 C-43.10796875 177.90203125 -42.2159375 177.8040625 -41.296875 177.703125 C-39.54117187 177.47882813 -39.54117187 177.47882813 -37.75 177.25 C-36.00976562 177.04117188 -36.00976562 177.04117188 -34.234375 176.828125 C-30.60295501 175.89834114 -29.27658349 174.92703592 -27 172 C-25.95413338 168.86240013 -25.87170148 166.67108754 -25.86628723 163.37812805 C-25.86202225 162.20758377 -25.85775726 161.03703949 -25.85336304 159.83102417 C-25.85381622 158.54527496 -25.85426941 157.25952576 -25.85473633 155.93481445 C-25.85174433 154.56805835 -25.84834171 153.20130309 -25.84455872 151.83454895 C-25.83571585 148.11942739 -25.8333804 144.40432885 -25.83274293 140.68919778 C-25.83203226 138.36659458 -25.82989757 136.04399724 -25.82724571 133.72139549 C-25.81798938 125.61382043 -25.81391094 117.50626181 -25.81469727 109.39868164 C-25.81529724 101.85010153 -25.80476196 94.30159307 -25.7889536 86.75303108 C-25.77585647 80.26712087 -25.77051432 73.781234 -25.77115268 67.29531068 C-25.77140715 63.42403947 -25.76858454 59.55283186 -25.75797462 55.68157387 C-25.74825774 52.03640392 -25.74823895 48.39135784 -25.75549126 44.7461834 C-25.75702735 42.77965568 -25.74871431 40.81312789 -25.74005127 38.84661865 C-25.76226372 32.57318706 -25.93746423 26.95808961 -28 21 C-30.08298545 19.44677732 -30.08298545 19.44677732 -32.6875 19.0625 C-33.57566406 18.86140625 -34.46382812 18.6603125 -35.37890625 18.453125 C-36.24386719 18.30359375 -37.10882812 18.1540625 -38 18 C-39.09634766 17.80664062 -39.09634766 17.80664062 -40.21484375 17.609375 C-41.80370245 17.36243582 -43.40148157 17.173752 -45 17 C-45 14.69 -45 12.38 -45 10 C-43.2675 9.62875 -43.2675 9.62875 -41.5 9.25 C-30.37266388 6.75202659 -19.67462771 4.14376253 -9.0859375 -0.14453125 C-6 -1 -6 -1 0 0 Z " fill="#061327" transform="translate(1087,722)"/>
<path d="M0 0 C4.85615126 4.06245772 8.87011862 8.42752469 10.81640625 14.51953125 C10.98384432 17.29974589 11.04933413 19.97365929 11.01171875 22.75048828 C11.00879822 23.56569946 11.00587769 24.38091064 11.00286865 25.2208252 C10.99527682 26.98488933 10.98306494 28.74893837 10.96673584 30.51294327 C10.94116742 33.30340882 10.92816783 36.09368389 10.91845703 38.88424683 C10.89562528 44.80442728 10.85712207 50.72445033 10.81640625 56.64453125 C10.76923729 63.51177723 10.72845851 70.3789339 10.70452881 77.24630356 C10.69154513 79.99791159 10.66653364 82.74924572 10.64111328 85.50076294 C10.63385003 87.18296061 10.62714634 88.86516082 10.62109375 90.54736328 C10.60559479 91.69759476 10.60559479 91.69759476 10.58978271 92.87106323 C10.58902678 96.64391147 10.66830621 98.29738119 12.81640625 101.51953125 C15.24332574 101.92373431 15.24332574 101.92373431 18.00390625 101.76953125 C18.98359375 101.74375 19.96328125 101.71796875 20.97265625 101.69140625 C24.31238706 101.48955439 27.52347962 101.10494043 30.81640625 100.51953125 C31.47640625 102.16953125 32.13640625 103.81953125 32.81640625 105.51953125 C24.43226553 114.04858304 17.03066541 117.64259071 5.00390625 118.01953125 C-1.50344227 118.07438772 -5.07819002 116.40364731 -9.828125 111.9921875 C-12.45658787 108.81869219 -13.5511287 106.53874466 -14.18359375 102.51953125 C-15.06660156 103.18339844 -15.94960937 103.84726562 -16.859375 104.53125 C-30.12864165 114.35366446 -41.27077215 119.81340831 -58.18359375 118.51953125 C-65.37270554 116.88698329 -71.42978601 113.16261942 -76.18359375 107.51953125 C-77.82992461 104.6086274 -79.05145652 101.66009272 -80.18359375 98.51953125 C-80.51359375 97.85953125 -80.84359375 97.19953125 -81.18359375 96.51953125 C-82.28138915 85.72977079 -79.94017576 79.15440426 -74.05859375 70.33203125 C-62.43839948 57.51723757 -40.73156567 51.74525407 -24.18359375 49.51953125 C-22.41857293 49.47077377 -20.65232519 49.45505884 -18.88671875 49.47265625 C-17.55882324 49.48280762 -17.55882324 49.48280762 -16.20410156 49.49316406 C-15.53733398 49.50186523 -14.87056641 49.51056641 -14.18359375 49.51953125 C-14.22791477 45.07138151 -14.29792011 40.62457774 -14.39111328 36.17724609 C-14.41923157 34.66629187 -14.44049146 33.15519304 -14.45458984 31.64404297 C-14.47614824 29.46377022 -14.52285691 27.28521906 -14.57421875 25.10546875 C-14.60563965 23.1416626 -14.60563965 23.1416626 -14.63769531 21.13818359 C-15.35373433 16.39170312 -17.20403622 13.04387408 -21.03515625 10.09375 C-21.62039063 9.80113281 -22.205625 9.50851562 -22.80859375 9.20703125 C-24.60026042 8.31119792 -26.39192708 7.41536458 -28.18359375 6.51953125 C-29.55907531 6.43644487 -30.93845171 6.41217109 -32.31640625 6.421875 C-33.12207031 6.42509766 -33.92773438 6.42832031 -34.7578125 6.43164062 C-36.02044922 6.44420898 -36.02044922 6.44420898 -37.30859375 6.45703125 C-38.58283203 6.46379883 -38.58283203 6.46379883 -39.8828125 6.47070312 C-41.98310284 6.48250251 -44.08335705 6.50043819 -46.18359375 6.51953125 C-46.31378906 7.74542969 -46.44398437 8.97132813 -46.578125 10.234375 C-47.58260386 18.19833215 -51.194418 25.11430014 -57.18359375 30.51953125 C-61.79733719 33.42628716 -66.91279918 33.30819829 -72.18359375 32.51953125 C-75.08043243 30.31793385 -76.57656606 28.73358663 -78.18359375 25.51953125 C-78.56587313 21.54382568 -78.48319157 19.11872688 -76.68359375 15.51953125 C-67.56329046 4.5751673 -55.64925598 -0.5576988 -42.18359375 -4.48046875 C-41.08144531 -4.82078125 -41.08144531 -4.82078125 -39.95703125 -5.16796875 C-27.14463211 -8.62299773 -11.13738753 -7.69619055 0 0 Z " fill="#061327" transform="translate(1377.18359375,792.48046875)"/>
<path d="M0 0 C1.10601563 0.48726562 2.21203125 0.97453125 3.3515625 1.4765625 C10.84950147 4.92525045 18.27878651 8.936041 24 15 C24 15.99 24 16.98 24 18 C22.47802734 19.40698242 22.47802734 19.40698242 20.3359375 20.85546875 C19.55041504 21.39171875 18.76489258 21.92796875 17.95556641 22.48046875 C17.10397949 23.04378906 16.25239258 23.60710938 15.375 24.1875 C14.5092334 24.76757812 13.6434668 25.34765625 12.75146484 25.9453125 C-17.9505427 46.32631621 -17.9505427 46.32631621 -37 44 C-44.01235176 42.14891336 -48.48655655 37.17472628 -52.140625 31.10546875 C-54.40244359 25.56401321 -53.65247668 18.80942496 -51.5625 13.3125 C-47.83192199 6.00842094 -40.90098558 0.34149805 -33.19921875 -2.37890625 C-22.60343499 -4.43596317 -9.92572628 -4.52921491 0 0 Z " fill="#7B8EB7" transform="translate(906,815)"/>
<path d="M0 0 C0 12.21 0 24.42 0 37 C-19.0984456 46.5492228 -19.0984456 46.5492228 -29 45 C-32.4375 43.1875 -32.4375 43.1875 -35 41 C-35.5775 40.54625 -36.155 40.0925 -36.75 39.625 C-40.32161573 34.98189955 -40.49757733 29.39231202 -40.375 23.74609375 C-39.47597489 17.16260779 -35.06719436 12.3216964 -29.98828125 8.30859375 C-21.67204605 2.83523659 -9.90314719 0 0 0 Z " fill="#7A8DB6" transform="translate(1363,850)"/>
<path d="M0 0 C2.1519437 3.22791555 2.20086443 4.28400809 2 8 C1.01 8.33 0.02 8.66 -1 9 C-0.67 6.03 -0.34 3.06 0 0 Z " fill="#697999" transform="translate(664,551)"/>
</svg>
